<?xml version="1.0" encoding="utf-8"?>
<!-- Generator: Adobe Illustrator 23.0.1, SVG Export Plug-In . SVG Version: 6.00 Build 0)  -->
<svg version="1.1" id="Layer_1" xmlns="http://www.w3.org/2000/svg" xmlns:xlink="http://www.w3.org/1999/xlink" x="0px" y="0px"
	 viewBox="0 0 322.9 42" style="enable-background:new 0 0 322.9 42;" xml:space="preserve">
<style type="text/css">
	.st0{fill:#FFFFFF;}
</style>
<g>
	<path class="st0" d="M53.5,0.4h4.4L72,35.1h-7.5l-8.8-23.8l-8.8,23.8h-7.5L53.5,0.4z M46.2,23.3h19.3v6.3H46.2V23.3z"/>
	<path class="st0" d="M76.5,0.4h6.9v34.8h-6.9V0.4z M80.7,21.6L95.4,0.4h8.7L81.6,30.1L80.7,21.6z M86.8,17.5l6-3.6l12.9,21.2h-8.2
		L86.8,17.5z"/>
	<path class="st0" d="M110.2,0.4h6.9v34.8h-6.9V0.4z M112.7,0.4h22.1v6.3h-22.1V0.4z M112.7,14.7h19.3V21h-19.3V14.7z M112.7,28.8
		h22.1v6.3h-22.1V28.8z"/>
	<path class="st0" d="M141.2,0.3h6.9v34.8h-6.9V0.3z M143.9,14.8h12.8c0.7,0,1.3-0.2,1.9-0.5c0.5-0.3,1-0.8,1.3-1.4s0.5-1.3,0.5-2.2
		c0-0.8-0.1-1.5-0.4-2.2c-0.3-0.6-0.7-1.1-1.3-1.4c-0.5-0.3-1.2-0.5-1.9-0.5h-12.8V0.3h13.3c2,0,3.8,0.4,5.3,1.3
		c1.5,0.9,2.7,2.1,3.6,3.6c0.8,1.6,1.3,3.4,1.3,5.5c0,2.1-0.4,3.9-1.3,5.5c-0.8,1.6-2,2.8-3.6,3.6c-1.5,0.9-3.3,1.3-5.3,1.3h-13.3
		V14.8z M151.7,20.1l7.4-1.1l9.9,16.2h-8.4L151.7,20.1z"/>
	<path class="st0" d="M182.8,35.5c0,0-0.8-0.2-2.5-0.5c-1.7-0.3-3.3-0.8-4.7-1.5c-1.5-0.6-2.8-1.4-4-2.3l3.2-5.4
		c1.4,1.1,3.1,2,4.9,2.5c1.9,0.6,3.8,0.9,5.7,0.9c2.3,0,4-0.4,5.3-1.1c1.2-0.7,1.9-1.8,1.9-3.1v0c0-0.9-0.3-1.7-0.8-2.2
		s-1.3-0.9-2.2-1.2s-2-0.5-3.4-0.7c0,0-0.1,0-0.1,0s-0.1,0-0.1,0l-0.6-0.1c-2.5-0.4-4.5-0.8-6.1-1.4c-1.6-0.5-3-1.5-4.1-2.9
		c-1.1-1.4-1.7-3.3-1.7-5.9v0c0-2.2,0.5-4.2,1.6-5.8c1.1-1.6,2.6-2.8,4.6-3.6c2-0.8,4.5-1.3,7.3-1.3c1.3,0,2.7,0.1,4,0.4
		c1.4,0.3,2.7,0.7,4,1.2c1.3,0.5,2.6,1.2,3.7,2l-2.9,5.6c-1.4-0.9-2.9-1.6-4.4-2.2c-1.5-0.5-3-0.8-4.4-0.8c-2.1,0-3.8,0.3-4.9,1
		c-1.2,0.7-1.7,1.6-1.7,2.8v0c0,1,0.3,1.8,0.9,2.4c0.6,0.6,1.4,1,2.3,1.3c0.9,0.3,2.1,0.6,3.8,0.9c0.1,0,0.1,0,0.2,0
		c0.1,0,0.1,0,0.2,0c0.1,0,0.2,0,0.3,0.1c0.1,0,0.2,0,0.3,0.1c2.3,0.4,4.3,1,5.8,1.6c1.6,0.6,2.9,1.6,3.9,3c1,1.4,1.6,3.2,1.6,5.6v0
		c0,2.2-0.5,4.1-1.6,5.7s-2.7,2.8-4.8,3.6c-2.1,0.8-4.6,1.2-7.6,1.2C183.7,35.5,182.8,35.5,182.8,35.5z"/>
	<path class="st0" d="M205.3,0.4h6.9v34.8h-6.9V0.4z M208.5,15.3h11.8c0.8,0,1.6-0.2,2.2-0.5c0.6-0.4,1.1-0.9,1.5-1.5
		c0.4-0.7,0.5-1.4,0.5-2.2c0-0.9-0.2-1.6-0.5-2.3c-0.3-0.7-0.8-1.2-1.5-1.5c-0.6-0.4-1.4-0.5-2.2-0.5h-11.8V0.4H220
		c2.3,0,4.3,0.4,6.1,1.3c1.7,0.9,3.1,2.1,4.1,3.7c1,1.6,1.4,3.5,1.4,5.6c0,2.1-0.5,4-1.4,5.6c-1,1.6-2.3,2.8-4.1,3.7
		c-1.7,0.9-3.8,1.3-6.1,1.3h-11.6V15.3z"/>
	<path class="st0" d="M245.8,0.4h4.4l14.1,34.8h-7.5L248,11.4l-8.8,23.8h-7.5L245.8,0.4z M238.5,23.3h19.3v6.3h-19.3V23.3z"/>
	<path class="st0" d="M275.1,35.5c0,0-1-0.5-3-1.5s-3.5-2.5-4.6-4.4c-1-1.9-1.6-4.3-1.6-7V13c0-2.7,0.5-5.1,1.6-7
		c1-1.9,2.6-3.4,4.6-4.4c2-1,4.4-1.5,7.2-1.5c2.3,0,4.4,0.5,6.2,1.4c1.8,0.9,3.3,2.3,4.5,4.1c1.2,1.8,2,4,2.5,6.5h-7.2
		c-0.3-1.1-0.7-2.1-1.3-2.9c-0.6-0.8-1.2-1.4-2-1.9s-1.7-0.6-2.7-0.6c-1.3,0-2.4,0.3-3.3,0.8c-0.9,0.5-1.6,1.2-2.1,2.2
		c-0.5,1-0.7,2.1-0.7,3.5v9.5c0,1.4,0.2,2.5,0.7,3.5c0.5,1,1.2,1.7,2.1,2.2c0.9,0.5,2,0.8,3.3,0.8c1,0,1.9-0.2,2.7-0.6
		c0.8-0.4,1.5-1,2-1.9c0.6-0.8,1-1.8,1.2-3h7.2c-0.5,2.5-1.3,4.7-2.5,6.5c-1.2,1.8-2.7,3.2-4.5,4.1s-3.9,1.4-6.2,1.4
		C276.5,35.5,275.1,35.5,275.1,35.5z"/>
	<path class="st0" d="M298.3,0.4h6.9v34.8h-6.9V0.4z M300.8,0.4h22.1v6.3h-22.1V0.4z M300.8,14.7h19.3V21h-19.3V14.7z M300.8,28.8
		h22.1v6.3h-22.1V28.8z"/>
</g>
<g>
	<path class="st0" d="M25.3,0.3h10v34.8h-6.9v-27l0.3,1.5L21,31.3h-6.7L6.7,10.1l0.3-2v27H0V0.3h10l7.7,23.4L25.3,0.3z"/>
</g>
<rect y="37.4" class="st0" width="35.1" height="4.5"/>
</svg>
