<?xml version="1.0" standalone="no"?>
<!DOCTYPE svg PUBLIC "-//W3C//DTD SVG 20010904//EN"
 "http://www.w3.org/TR/2001/REC-SVG-20010904/DTD/svg10.dtd">
<svg version="1.0" xmlns="http://www.w3.org/2000/svg"
 width="610.000000pt" height="610.000000pt" viewBox="0 0 610.000000 610.000000"
 preserveAspectRatio="xMidYMid meet">
<metadata>
Created by potrace 1.14, written by Peter Selinger 2001-2017
</metadata>
<g transform="translate(0.000000,610.000000) scale(0.100000,-0.100000)"
fill="#000000" stroke="none">
<path d="M0 3050 l0 -3050 3050 0 3050 0 0 3050 0 3050 -3050 0 -3050 0 0
-3050z m2201 2310 c34 -106 371 -1138 479 -1465 60 -181 168 -511 240 -732 72
-222 135 -403 140 -403 4 0 11 12 14 28 4 15 56 176 116 357 59 182 166 506
236 720 181 556 299 916 411 1258 l98 297 567 0 568 0 0 -1980 0 -1980 -390 0
-390 0 0 1395 c0 923 -3 1395 -10 1395 -5 0 -10 -4 -10 -10 0 -5 -30 -92 -66
-192 -61 -171 -92 -258 -230 -643 -30 -82 -83 -233 -119 -335 -36 -102 -83
-234 -105 -295 -22 -60 -69 -193 -105 -295 -36 -102 -98 -274 -137 -383 l-72
-197 -380 0 -381 0 -69 193 c-63 177 -117 325 -246 677 -27 74 -79 216 -115
315 -36 99 -87 241 -115 315 -27 74 -79 216 -115 315 -36 99 -91 250 -123 335
l-57 154 -3 -1372 -2 -1372 -390 0 -390 0 0 1980 0 1980 567 -2 566 -3 18 -55z
m2869 -4435 l0 -255 -2010 0 -2010 0 0 255 0 255 2010 0 2010 0 0 -255z"/>
</g>
</svg>
