<svg id="Layer_1" data-name="Layer 1" xmlns="http://www.w3.org/2000/svg" viewBox="0 0 918 294"><defs><style>.cls-1{fill:#008542;}.cls-2{fill:none;}</style></defs><title>Capstone Logo-Eco Green-01</title><path class="cls-1" d="M86.86,168.41c-7.35,7.57-17.08,11.24-28.54,11.24S36.92,176,29.57,168.41C22.87,161.49,19,151.76,19,140.09V24H43.19V141.39c0,11,6.92,16.43,15.13,16.43s14.92-5.41,14.92-16.43V24H97.45V140.09C97.45,151.76,93.56,161.49,86.86,168.41Z"/><path class="cls-1" d="M186.4,45.84V177.92H162.19V45.84H136.47V24h75.87V45.84Z"/><path class="cls-1" d="M322.17,165.17c-6.27,7.13-15.13,12.75-29.83,12.75H253.21V24h39.13c14.7,0,23.56,5.62,29.83,12.75,11.46,12.76,11.24,34.59,11.24,64.21S333.63,152.41,322.17,165.17ZM304,52.1c-2.38-3.67-6.48-6.26-12.32-6.26H277.42V156.09h14.27c5.84,0,9.94-2.6,12.32-6.27,4.54-7.13,5.19-22.27,5.19-49.08S308.55,59.24,304,52.1Z"/><path class="cls-1" d="M395.61,127.55c0,13,.65,22.92,3.46,27a10.34,10.34,0,0,0,8.86,4.54c3.89,0,6.48-1.73,8.64-4.54,1.73-2.17,2.82-6.71,2.82-10.16h22.7c-.44,9.51-3,19-9.52,26.15-5.83,6.49-14.7,9.08-24.64,9.08-10.59,0-17.73-2.37-24.65-9.29-9.72-9.73-10.59-28.76-10.59-49.51s.87-39.78,10.59-49.51c6.92-6.91,15.14-9.07,24.43-9.07,9.51,0,17.73,1.94,24.43,9.07,11,11.68,10.16,34.81,10.38,56.21Zm20.75-40.42a10.5,10.5,0,0,0-17.29,0c-2.6,3.24-3.46,11.89-3.46,23.56h24C419.6,99,419,90.37,416.36,87.13Z"/><path class="cls-1" d="M539.51,170.36c-6.91,6.92-15.13,9.29-24.86,9.29s-19.24-3.24-25.07-9.29c-6.71-6.92-10.17-14.92-10.17-25.73h22.7c0,4.54,1.3,8.22,3.89,10.81a13.11,13.11,0,0,0,17.51.22c2.17-1.95,3.25-5.41,3.25-9.08a14.21,14.21,0,0,0-2.38-8.43c-1.73-2.6-4.76-4.76-8.86-6.49L500.38,125c-7.78-3.46-13.4-8-16.64-13.19-2.6-4.11-3.68-9.3-3.68-15.56,0-11,3.89-18.17,9.95-24.43,6.27-6.27,15.13-9.51,24.64-9.51s18.16,3,24,8.64c6.05,5.84,9.73,13.84,9.73,25.3H525.89c0-5-1.08-8-3.24-10.38a10.48,10.48,0,0,0-8-3.46A11.13,11.13,0,0,0,503,94.26a11.06,11.06,0,0,0,1.73,6.7c1.51,2.38,4.54,4.76,8.43,6.49l15.13,6.48c7.78,3.46,13,7.14,16.65,12.54,3,4.33,4.75,10.81,4.75,18.59C549.67,156.3,545.35,164.52,539.51,170.36Z"/><path class="cls-1" d="M590,49.51V24.22H615.3V49.51Zm1.29,128.41V67h22.92v110.9Z"/><path class="cls-1" d="M715.08,209.7c-5.83,5.84-15.34,9.3-24.64,9.3-9.51,0-18.38-2.81-24.65-8.86-6.91-6.92-9.51-15.57-9.51-25.08H679c0,4.32.87,8,3.24,10.81a10.75,10.75,0,0,0,8.22,3.45,10.87,10.87,0,0,0,8.21-3.67c2.39-2.81,3.25-6.92,3.25-14.05V162.14a24.9,24.9,0,0,1-6.49,6.27c-3,2-6.48,2.6-11,2.6-9.51,0-14.49-2.38-19.67-8.43-7.14-8.44-9.09-21.41-9.09-45.84s2-37.61,9.09-46c5.18-6.06,9.94-8.43,19.67-8.43a24.14,24.14,0,0,1,11.67,3,22.19,22.19,0,0,1,6.7,6V64h22V180.08C724.81,194.79,721.35,203.43,715.08,209.7ZM701.9,96.42c0-4.75-1.3-8.21-3.46-10.59a10.44,10.44,0,0,0-8-3.24c-4.11,0-6.27,1.94-8.43,4.75-3.46,4.54-3.46,15.57-3.46,29.62s0,25.07,3.46,29.62c2.16,2.81,4.32,4.54,8.43,4.54a10.9,10.9,0,0,0,8.21-3.25c2.17-2.38,3.25-5.62,3.25-10.37Z"/><path class="cls-1" d="M816.1,177.92V96c0-8.86-5-13.19-11.23-13.19S793.62,87.13,793.62,96v81.93H770.71V64h22v8.43c1.94-2.6,4.75-5.62,7.57-7.14a22.66,22.66,0,0,1,11.45-3c9.3,0,15.57,2.81,20.76,8.86,4.53,5.19,6.48,11.46,6.48,24.64v82.15Z"/><path class="cls-1" d="M877.27,15.82a27.1,27.1,0,1,0,27.1,27.1A27.08,27.08,0,0,0,877.27,15.82Zm0,51c-12.95,0-23.58-10.93-23.58-23.88S864.32,19,877.27,19,900.85,30,900.85,42.92,890.22,66.8,877.27,66.8Z"/><path class="cls-1" d="M887.6,36.7a9,9,0,0,0-9.28-8.83h-9.58v30h3.36V45.39h4.95l7.41,12.5h3.89l-7.56-12.8C884.76,44,887.6,41.2,887.6,36.7Zm-15.5,5.69V30.94h5.84c3.6,0,6.29,2.47,6.29,5.76s-2.69,5.69-6.29,5.69Z"/><path class="cls-2" d="M-19.27,15.82a27.08,27.08,0,0,0-27.1,27.1A27.09,27.09,0,0,0-19.27,70a27.1,27.1,0,0,0,27.1-27.1A27.09,27.09,0,0,0-19.27,15.82Zm0,51c-13,0-23.59-10.93-23.59-23.88S-32.23,19-19.27,19,4.31,30,4.31,42.92-6.32,66.8-19.27,66.8Z"/><path class="cls-1" d="M46.4,275.51a21.92,21.92,0,0,1-15.86-6.44c-5.94-5.94-5.86-12.65-5.86-24.27s-.08-18.32,5.86-24.26a21.89,21.89,0,0,1,15.86-6.45c11.12,0,19.43,6.53,21.55,18.58H58.62c-1.44-6.11-5.51-10.35-12.22-10.35A12.06,12.06,0,0,0,37.5,226c-3,3.22-3.65,6.7-3.65,18.83s.68,15.61,3.65,18.84a12.05,12.05,0,0,0,8.9,3.64c6.71,0,10.86-4.24,12.3-10.35H68C65.92,269,57.35,275.51,46.4,275.51Z"/><path class="cls-1" d="M117.58,275l-4.16-12.13H89.58L85.43,275H75.67l22.14-60.4h7.38L127.34,275Zm-15.87-46.74L92.3,255.07h18.58Z"/><path class="cls-1" d="M162.37,251.25H148.63V275h-9.16V214.6h22.9c11.8,0,19.35,7.8,19.35,18.32S174.17,251.25,162.37,251.25Zm-.51-28.42H148.63v20.1h13.23c6.37,0,10.69-3.64,10.69-10S168.23,222.83,161.86,222.83Z"/><path class="cls-1" d="M212.42,275.51c-9.07,0-15.61-2.12-21.38-8l6.11-6c4.42,4.42,9.25,5.77,15.44,5.77,7.89,0,12.48-3.39,12.48-9.24a8.14,8.14,0,0,0-2.38-6.28c-1.53-1.44-3.05-2-6.62-2.55l-7.12-1c-4.92-.68-8.83-2.38-11.46-4.84-3-2.8-4.41-6.62-4.41-11.54,0-10.52,7.64-17.73,20.19-17.73,8,0,13.58,2,18.75,6.87l-5.85,5.77c-3.73-3.56-8.06-4.67-13.15-4.67-7.13,0-11,4.08-11,9.42a7.18,7.18,0,0,0,2.29,5.6,13.45,13.45,0,0,0,6.79,2.8l6.87,1c5.6.85,8.74,2.2,11.28,4.5,3.31,2.88,4.92,7.21,4.92,12.38C234.14,268.9,225.07,275.51,212.42,275.51Z"/><path class="cls-1" d="M270.45,222.83V275h-9.16V222.83H244.66V214.6h42.42v8.23Z"/><path class="cls-1" d="M334.84,269.07a22.86,22.86,0,0,1-31.81,0c-5.94-5.94-5.86-12.65-5.86-24.27s-.08-18.32,5.86-24.26a22.83,22.83,0,0,1,31.81,0c5.94,5.94,5.77,12.64,5.77,24.26S340.78,263.13,334.84,269.07Zm-6.95-43a12.71,12.71,0,0,0-18,0c-3,3.23-3.56,6.62-3.56,18.75s.59,15.53,3.56,18.75a12.71,12.71,0,0,0,18,0c3-3.22,3.56-6.62,3.56-18.75S330.86,229.28,327.89,226.05Z"/><path class="cls-1" d="M394.82,275l-27.91-42.5V275h-9.16V214.6h8.4L394.06,257V214.6h9.16V275Z"/><path class="cls-1" d="M422.56,275V214.6h38.6v8.23H431.72v17.64h25.11v8.15H431.72v18.15h29.44V275Z"/></svg>